<?xml version="1.0" encoding="UTF-8"?><svg id="Calque_2" xmlns="http://www.w3.org/2000/svg" width="55.84mm" height="40.78mm" xmlns:xlink="http://www.w3.org/1999/xlink" viewBox="0 0 158.28 115.61"><defs><linearGradient id="Dégradé_sans_nom_135" x1="121.52" y1="1.45" x2="121.52" y2="115.61" gradientUnits="userSpaceOnUse"><stop offset=".1" stop-color="#92561a"/><stop offset=".4" stop-color="#d0661c"/><stop offset="1" stop-color="#e3a51a"/></linearGradient><linearGradient id="Dégradé_sans_nom_117" x1="35.59" y1="0" x2="35.59" y2="113.49" gradientUnits="userSpaceOnUse"><stop offset=".2" stop-color="#1d7097"/><stop offset=".6" stop-color="#269fdb"/><stop offset="1" stop-color="#83bbe5"/></linearGradient><linearGradient id="Dégradé_sans_nom_104" x1="78.24" y1="115.61" x2="78.24" y2="0" gradientUnits="userSpaceOnUse"><stop offset=".13" stop-color="#a1851d"/><stop offset=".7" stop-color="#edbf26"/><stop offset="1" stop-color="#f9df5d"/></linearGradient></defs><g id="V2"><g id="Logo-Version-SaaS"><path d="M132.72,4.48c-.42.42-.84.85-1.26,1.3-1.66,1.79-3.25,3.81-4.75,6.04-1.13,1.67-2.2,3.46-3.22,5.36-.68,1.27-1.34,2.58-1.97,3.94-2.84,6.12-5.15,13.19-6.78,21.01l-6.47,31.33c-.72,3.47-1.58,6.8-2.56,9.96-.73,2.37-1.54,4.65-2.4,6.83-.58,1.45-1.18,2.86-1.81,4.22-.63,1.36-1.29,2.68-1.97,3.94-2.72,5.06-5.84,9.34-9.24,12.7-1.77,1.75-3.63,3.25-5.54,4.48h44.45c11.34,0,21.91-14.14,26.29-35.2l.7-3.6v-.03s.01-.03.01-.03c5.2-24.98.34-53.72-11.55-68.33-2.03-2.5-4.91-5.3-8.46-6.96-.29.23-.59.45-.88.69-.88.72-1.75,1.5-2.6,2.34Z" fill="url(#Dégradé_sans_nom_135)" stroke-width="0"/><path d="M27.16,106.89c2.78-3.55,5.31-7.76,7.51-12.55.95-2.05,1.83-4.21,2.65-6.46,1.64-4.51,3.03-9.41,4.11-14.65l6.17-30.86c.72-3.49,1.57-6.83,2.55-10.01.49-1.59,1.01-3.14,1.56-4.64,1.1-3.01,2.31-5.84,3.62-8.48s2.73-5.09,4.23-7.33c.75-1.12,1.52-2.19,2.32-3.2,1.19-1.52,2.43-2.92,3.7-4.18,1.28-1.27,2.59-2.4,3.94-3.4.54-.4,1.09-.77,1.65-1.13H29.07C17.73,0,7.17,14.14,2.78,35.2l-.7,3.6v.03s-.01.03-.01.03c-5.2,24.98-.34,53.72,11.55,68.33,1.78,2.19,4.2,4.61,7.16,6.29,2.24-1.83,4.37-4.04,6.38-6.6Z" fill="url(#Dégradé_sans_nom_117)" stroke-width="0"/><path d="M126.91,0h-39.97c-14.08,0-27.1,17.35-32.42,43.18l-6.16,30.83c-3.78,18.34-11.11,32.72-20.39,41.17,1.09.27,2.22.42,3.41.42h37.62c14.02,0,27.03-17.26,32.37-42.95l6.46-31.33c3.84-18.44,11.29-32.86,20.69-41.22-.53-.06-1.06-.1-1.6-.1Z" fill="url(#Dégradé_sans_nom_104)" stroke-width="0"/></g></g></svg>